<?xml version="1.0" standalone="no"?><!DOCTYPE svg PUBLIC "-//W3C//DTD SVG 1.1//EN" "http://www.w3.org/Graphics/SVG/1.1/DTD/svg11.dtd"><svg t="1747729328888" class="icon" viewBox="0 0 1024 1024" version="1.1" xmlns="http://www.w3.org/2000/svg" p-id="3551" xmlns:xlink="http://www.w3.org/1999/xlink" width="200" height="200"><path d="M631.994182 561.477818l2.420363 0.605091c6.050909 6.516364 13.544727 12.986182 22.481455 19.456 19.456 13.777455 37.469091 20.666182 54.085818 20.666182 8.098909 0 16.709818-1.722182 25.832727-5.166546a127.720727 127.720727 0 0 0 39.191273-24.017454l5.771637-5.259636 3.863272-3.630546 2.653091-1.861818 1.675637-0.186182 61.346909 34.024727c-5.259636 13.405091-7.912727 26.344727-7.912728 38.912 0 17.408 4.189091 33.605818 12.474182 48.593455a97.652364 97.652364 0 0 0 81.733818 50.455273c2.606545 14.568727 4.189091 27.229091 4.654546 37.934545l0.232727 7.633455v5.445818l-0.186182 3.072-0.465454 3.025454v4.840728l-1.163637 6.097454v4.840727l-0.930909 5.492364-0.232727 2.280727-0.093091 1.954909-1.210182 3.677091-0.046545 1.582546-0.232727 1.117091a6.749091 6.749091 0 0 0-0.325819 2.141091 94.952727 94.952727 0 0 0-66.839272 30.72 96.814545 96.814545 0 0 0-27.322182 68.933818c0 9.728 1.675636 19.828364 5.026909 30.347636l2.839273 7.912727-62.557091 34.676364-1.861818-0.605091a133.445818 133.445818 0 0 0-23.645091-20.666182 136.145455 136.145455 0 0 0-19.176728-12.148363 95.045818 95.045818 0 0 0-18.199272-7.307637 64.930909 64.930909 0 0 0-17.314909-2.420363c-17.035636 0-35.467636 7.074909-55.296 21.271272l-5.585455 4.468364-8.331636 7.354182-3.770182 3.770182-1.163637 1.396363-4.235636 3.677091h-1.861818l-60.741818-33.419636a71.214545 71.214545 0 0 0 3.351272-7.912727l0.744728-2.420364 1.675636-6.702545 0.930909-4.235637a96.814545 96.814545 0 0 0-25.506909-85.969454 94.952727 94.952727 0 0 0-66.885818-30.72 269.172364 269.172364 0 0 1-4.840727-45.568l0.093091-5.585455 0.791272-13.265454 0.930909-9.541819 0.930909-6.842181c0.605091-3.677091 1.303273-7.074909 2.094546-10.333091a98.490182 98.490182 0 0 0 92.346182-116.689455l-0.884364-4.235636-1.675636-6.702546a43.52 43.52 0 0 0-0.744728-2.420363l-1.62909-4.096-1.722182-3.816728 63.767272-34.629818h0.651637z m12.660363 93.882182l-0.09309 1.303273a167.749818 167.749818 0 0 1-69.771637 116.410182l-10.100363 6.516363 1.349818 0.791273c8.983273 5.632 17.547636 12.241455 25.553454 19.735273l7.819637 7.773091c22.900364 24.203636 37.608727 52.829091 43.52 84.433454l1.163636 7.959273 10.286545-4.514909c14.149818-5.725091 28.532364-9.309091 43.147637-10.519273l11.031273-0.465455c12.055273 0 24.064 1.722182 35.84 4.980364 7.168 1.954909 14.242909 4.514909 21.224727 7.586909l9.448727 4.468364 1.536-9.495273a164.864 164.864 0 0 1 36.165818-76.241454l7.307637-8.192c10.24-10.798545 21.410909-20.014545 33.373091-27.508364l1.163636-0.698182-1.489455-0.837818a165.748364 165.748364 0 0 1-52.782545-52.084364l-5.538909-9.309091a167.889455 167.889455 0 0 1-18.152727-50.222545l-1.722182-10.705455-2.513455 1.256728-10.938182 4.561454c-16.663273 6.283636-33.512727 9.681455-50.501818 9.681455-21.783273 0-43.008-5.352727-63.953454-15.406546l-2.327273-1.256727zM753.664 0a81.454545 81.454545 0 0 1 81.175273 74.752l0.279272 6.702545v28.997819l99.281455 0.046545v69.818182l-99.328-0.046546v116.363637l99.328 0.046545v69.818182l-99.328-0.046545v122.88h-69.818182V217.6h-226.490182L488.401455 278.667636A69.957818 69.957818 0 0 1 420.677818 365.381818a69.818182 69.818182 0 1 1 18.711273-137.076363l66.56-80.523637 259.304727-0.046545V81.454545a11.636364 11.636364 0 0 0-8.936727-11.310545l-2.653091-0.325818H222.021818a11.636364 11.636364 0 0 0-11.357091 8.983273l-0.279272 2.65309-0.046546 446.88291h216.157091l50.408727-60.974546a69.957818 69.957818 0 0 1 67.723637-86.807273 69.818182 69.818182 0 1 1-18.711273 137.076364l-66.56 80.523636H210.385455v181.480728a11.636364 11.636364 0 0 0 8.983272 11.310545l2.699637 0.325818H389.585455v69.818182h-167.563637a81.454545 81.454545 0 0 1-81.128727-74.752l-0.279273-6.702545v-40.820364L46.545455 738.862545v-69.818181l94.021818-0.046546v-116.363636L46.545455 552.680727v-69.818182l94.021818-0.046545v-116.363636L46.545455 366.498909v-69.818182l94.021818-0.046545v-116.363637L46.545455 180.317091v-69.818182l94.021818-0.046545V81.454545A81.454545 81.454545 0 0 1 215.412364 0.279273L222.068364 0h531.549091z m-42.961455 709.818182a69.818182 69.818182 0 1 1 0 139.636363 69.818182 69.818182 0 0 1 0-139.636363z" fill="#8E24AA" p-id="3552"></path></svg>